<?xml version="1.0" encoding="UTF-8"?>
<svg id="LOGOSVG1" width="350mm" height="270mm" version="1.1" viewBox="0 0 350 270" xmlns="http://www.w3.org/2000/svg" xmlns:xlink="http://www.w3.org/1999/xlink">
 <defs id="defs2">
  <style id="style824">.cls-1{fill:#358856;}.cls-2{fill:#62bd69;}</style>
 <clipPath id="clipleaf3a">
   <path id="mleaf3a" d="m184.54 144.19s-0.32807-7.7096 2.8706-11.318c3.1987-3.6088 11.154-8.8578 14.353-8.8578 3.1987 0 13.533-2.0504 19.766 2.9526 6.2333 5.003 7.1355 6.3153 7.0535 10.498-0.08202 4.1829-10.252 10.006-17.388 12.221s-20.176 7.9556-23.047 5.8232c-2.8706-2.1324-3.6088-11.318-3.6088-11.318z" display="true"/>
    </clipPath>
  <clipPath id="clipleaf3b">
    <path id="mleaf3b" d="m184.54 144.19s-2.1122-5.2142 2.3785-6.9714c0.94319-0.36908 0.66274 2.0865-0.73816 4.962-0.77916 1.5993-1.5583 5.1671 2.2555 10.252 4.7957 6.3942 10.659 0.85073 14.369-1.0827 2.9116-1.5173 6.7418-1.5241 5.2585-0.04101-1.4222 1.422-17.044 6.3318-19.915 4.1994-2.8706-2.1324-3.6088-11.318-3.6088-11.318z" display="true"/>
  </clipPath>

  <filter id="glow">
    <feGaussianBlur stdDeviation="2.5" result="coloredBlur"/>
    <feMerge>
        <feMergeNode in="coloredBlur"/>
        <feMergeNode in="SourceGraphic"/>
    </feMerge>
</filter>



 </defs>
 <g id="Logo" transform="translate(-.52917 -2.1167)">
  <g id="g1200">
   <g id="leafBox">
    <g id="Leaves" stroke-width=".26458">
     <path id="Leaf1"  class="cls-1" d="m157.92 222.42c-8.636-10.771-10.192-27.252-3.458-39.555 5.717-10.47 18.158-16.333 29.935-13.909-8.626 6.75-17.431 13.078-20.696 24.871 6.757-10.287 15.195-17.878 27.231-21.167 0.896 5.715-0.092 11.566-2.815 16.669-2.301 4.315-5.186 8.292-8.573 11.819-6.9 7.231-14.198 14.031-21.624 21.272z"/>
     <path id="Leaf2" class="cls-2" d="m225.08 202.46c8.71-9.79 10.417-24.119 3.826-34.414-5.596-8.731-17.933-13.15-29.692-10.419 8.53 5.376 17.243 10.374 20.373 20.402-6.617-8.543-14.957-14.647-26.921-16.835-0.956 4.916-0.011 10.011 2.646 14.256 2.299 3.663 5.141 6.956 8.429 9.766 6.803 5.897 14.023 11.38 21.339 17.246z"/>
     <path id="Leaf3" class="cls-1" d="m224.48 138.63c-5.514-7.556-15.595-11.131-24.254-8.4-7.35 2.32-12.787 9.937-12.943 18.367 5.448-4.877 10.652-9.938 18.492-10.374-7.392 3.055-13.335 7.672-17.092 15.414 3.418 1.481 7.251 1.698 10.814 0.614 3.052-0.93 5.952-2.299 8.61-4.064 5.511-3.619 10.795-7.588 16.375-11.557z"/>
     <path id="Leaf4" class="cls-1" d="m136.51 127.05c8.858-8.101 22.783-10.186 33.457-4.762 9.062 4.601 14.457 15.346 12.79 25.855-6.014-7.332-11.673-14.843-21.786-17.22 8.948 5.53 15.669 12.66 18.846 23.159-4.804 1.036-9.817 0.412-14.221-1.77-3.755-1.857-7.229-4.235-10.319-7.064-6.379-5.789-12.382-11.959-18.767-18.198z"/>
     <path id="Leaf5" class="cls-2" d="m130.42 172.87c0.355-9.366 6.707-18.008 15.401-20.638 7.379-2.225 16.14 1.019 20.958 7.911-7.226-0.966-14.362-2.222-21.095 1.836 7.826-1.638 15.322-1.164 22.754 3.125-2 3.152-5.051 5.495-8.612 6.614-3.043 0.95-6.208 1.451-9.396 1.488-6.593 0.111-13.182-0.196-20.01-0.337z"/>
     <g id="maskGroup" fill="none" stroke="#000" stroke-width=".26458px">
        <path id="mleaf2a" d="m190.94 156.82s4.4289-5.1671 14.271-4.593 32.479 8.3657 31.823 14.517c-0.65614 6.1513 7.8736 29.444-4.2649 33.791-12.139 4.3469-21.734-1.0662-25.179-2.7886-3.4447-1.7224-14.271-15.583-14.845-21.324-0.57412-5.7412-4.5109-10.99-3.8548-13.861 0.65614-2.8706 2.0504-5.7412 2.0504-5.7412z" display="none"/>
      <path id="mleaf2b" d="m190.94 156.82s4.4477-3.7569 14.271-4.593c3.8548-0.32807-0.12207 1.1996-2.2965 1.5583-2.6519 0.43749-7.0798 1.1947-8.7353 2.617-2.6915 2.3124-3.2392 0.41762-3.8722 7.8231-0.328 3.8373 3.8258 14.912 2.4374 12.197 0 0-4.5109-10.99-3.8548-13.861 0.65614-2.8706 2.0504-5.7412 2.0504-5.7412z" display="none"/>
      <path id="mleaf1b" d="m185.77 163.79s7.218 2.2296 6.9714 7.9556c-0.14791 3.4343 0.32335-1.7524-3.0247-3.2537-1.3054-0.58537-0.26816-1.2308-5.1892-3.0351-4.921-1.8044-9.6805-0.58312-10.366-0.97596-0.58968-0.33797-2.3051-1.347-1.4324-1.347 1.1482 0 13.041 0.65614 13.041 0.65614z" display="none"/>
      <path id="mleaf1a" d="m185.77 163.79s7.2175-1.9684 6.9714 7.9556c-0.24605 9.9241 6.2333 20.668-3.0346 34.037-9.2679 13.369-34.119 20.258-39.04 18.454-4.921-1.8044-16.978-29.116-9.432-37.81 7.5456-8.6938 30.346-23.293 31.495-23.293 1.1482 0 13.041 0.65614 13.041 0.65614z" display="none"/>
      <path id="mleaf5b" d="m149.97 146.32c7.0949 0.38705 13.397 2.6678 19.486 8.6412 6.0894 5.9735 1.054 11.35-1.4499 12.585-1.536 0.75746 1.6952-4.4768 0.40597-8.9892-0.46396-1.6239-6.586-7.5184-9.8591-8.5252-2.1344-0.65655-15.897-4.1106-8.5832-3.7117z" display="none"/>
      <path id="mleaf5a" d="m149.97 146.32c7.0949 0.38705 13.397 2.6678 19.486 8.6412 6.0894 5.9735 4.0596 6.9014-1.4499 12.585-5.5095 5.6835-34.855 9.8011-38.451 6.7854-3.5957-3.0157-5.2195-16.355-0.52196-21.342 4.6976-4.9876 13.623-7.0684 20.936-6.6694z" display="none"/>
      <path id="mleaf4b" d="m181.64 154.38s4.7929-13.171 4.5236-16.702c-0.23034-3.0207-1.4074-3.4074-3.0726-4.0142-3.7318-1.3598 1.4049 4.103 1.4119 6.4532 0.01216 4.0768-3.5039 13.298-5.1635 14.009-2.7064 1.1591-7.9064 1.1828-4.1948 2.3427 3.7117 1.1599 6.4954-2.0878 6.4954-2.0878z" display="none"/>
      <path id="mleaf4a" d="m181.64 154.38s5.1036-3.5957 4.5236-16.702-18.094-27.142-31.549-25.17-19.254 3.7117-27.606 9.9751c-8.3512 6.2634 11.367 16.818 21.574 21.226 10.207 4.4076 22.85 11.599 26.562 12.759 3.7117 1.1599 6.4954-2.0878 6.4954-2.0878z" display="none"/>
     </g>
    </g>
    <rect id="rect26016" x="120.84" y="93.712" width="124.75" height="130.55" fill-opacity="0"/>
   </g>
  </g>
 </g>
</svg>
