<?xml version="1.0" encoding="UTF-8"?>
<svg id="LOGOSVG1" width="350mm" height="270mm" version="1.1" viewBox="0 0 350 270" xmlns="http://www.w3.org/2000/svg" xmlns:xlink="http://www.w3.org/1999/xlink">
 <defs id="defs2">
  <style id="style824">.cls-1{fill:#358856;}.cls-2{fill:#62bd69;}</style>
  <clipPath id="clipRect">
    <rect id="mtext" x="61.531" y="218.05" width="221.45" height="32.315" ry="0" fill="none" stroke-linecap="round" stroke-linejoin="round"/>
  </clipPath>
   

 </defs>
 <g id="Logo" transform="translate(-.52917 -2.1167)">
  <g id="g1200">
   <path id="strokePath"  d="m67.026 204.81c12.046 2.7e-4 36.208 0 36.208 0v-75.689h27.759v51.356h-11.295v-24.111h15.318v-61.88l29.16-17.94v80.837h-12.797v-94.04l20.348-15.15 20.803 13.943v74.41h-8.9876v-29.53h39.787v59.796h-12.551v-28.823h19.728v-14.552h25.202v25.681h6.4162v11.658h-15.346v32.99h36.198" fill="none" stroke="#fff" stroke-linecap="round" stroke-linejoin="round" stroke-width="2.8"/>
    <!-- <g id="text" stroke-width=".26458" aria-label="URVERDURE">
    <path id="path21390" d="m80.72 238.29q0 2.8525-1.7363 4.3718t-5.116 1.5193-5.116-1.5193q-1.726-1.5193-1.726-4.3615v-9.8289h3.9894v9.6015q0 1.602 0.67179 2.3874 0.6718 0.78549 2.1807 0.78549 1.4883 0 2.1704-0.75448 0.69246-0.75448 0.69246-2.4185v-9.6015h3.9894z"/>
    <path id="path21392" d="m100.8 233.34q0-0.57879-0.23772-0.9922-0.23771-0.41341-0.81649-0.65112-0.40307-0.16536-0.94051-0.19637-0.53743-0.04133-1.2506-0.04133h-1.4366v4.1444h1.2196q0.95085 0 1.5916-0.09302 0.64078-0.09302 1.0749-0.42374 0.41341-0.3204 0.59944-0.7028 0.19638-0.39275 0.19638-1.0439zm6.1908 10.676h-4.8473l-4.1961-5.6431h-1.8294v5.6431h-3.9481v-15.389h6.6559q1.3643 0 2.3461 0.15504 0.98185 0.15503 1.8397 0.67179 0.86817 0.51677 1.3746 1.3436 0.51676 0.81648 0.51676 2.0567 0 1.7053-0.79582 2.7802-0.78548 1.0749-2.2531 1.788z"/>
    <path id="path21394" d="m134.12 228.63-5.6121 15.389h-4.4442l-5.6121-15.389h4.1651l3.7207 10.811 3.7207-10.811z"/>
    <path id="path21396" d="m156.7 244.02h-11.131v-15.389h11.131v2.9766h-7.183v2.6562h6.6663v2.9766h-6.6663v3.8034h7.183z"/>
    <path id="path21398" d="m176.78 233.34q0-0.57879-0.23772-0.9922-0.23771-0.41341-0.81649-0.65112-0.40307-0.16536-0.94051-0.19637-0.53743-0.04133-1.2506-0.04133h-1.4366v4.1444h1.2196q0.95085 0 1.5916-0.09302 0.64078-0.09302 1.0749-0.42374 0.41341-0.3204 0.59944-0.7028 0.19638-0.39275 0.19638-1.0439zm6.1908 10.676h-4.8473l-4.1961-5.6431h-1.8294v5.6431h-3.9481v-15.389h6.6559q1.3643 0 2.3461 0.15504 0.98185 0.15503 1.8397 0.67179 0.86817 0.51677 1.3746 1.3436 0.51676 0.81648 0.51676 2.0567 0 1.7053-0.79582 2.7802-0.78548 1.0749-2.2531 1.788z"/>
    <path id="path21400" d="m208.97 236.34q0 2.1497-0.98185 3.8551-0.98186 1.695-2.4805 2.6045-1.1266 0.68213-2.4701 0.95085t-3.1833 0.26872h-5.426v-15.389h5.5811q1.881 0 3.2453 0.32041 1.3643 0.31005 2.2944 0.88883 1.5916 0.97152 2.5011 2.6252 0.91984 1.6433 0.91984 3.8757zm-4.1031-0.031q0-1.5193-0.55811-2.5942-0.54777-1.0852-1.7467-1.695-0.60978-0.29973-1.2506-0.40308-0.63045-0.11369-1.912-0.11369h-1.0025v9.6325h1.0025q1.4159 0 2.0774-0.12402 0.66146-0.13435 1.2919-0.47542 1.0852-0.62012 1.5916-1.6536 0.50643-1.0439 0.50643-2.5735z"/>
    <path id="path21402" d="m234.12 238.29q0 2.8525-1.7363 4.3718t-5.116 1.5193q-3.3796 0-5.116-1.5193-1.726-1.5193-1.726-4.3615v-9.8289h3.9894v9.6015q0 1.602 0.6718 2.3874 0.67179 0.78549 2.1808 0.78549 1.4883 0 2.1704-0.75448 0.69247-0.75448 0.69247-2.4185v-9.6015h3.9894z"/>
    <path id="path21404" d="m254.2 233.34q0-0.57879-0.23772-0.9922-0.23771-0.41341-0.81649-0.65112-0.40307-0.16536-0.94051-0.19637-0.53743-0.04133-1.2506-0.04133h-1.4366v4.1444h1.2196q0.95085 0 1.5916-0.09302 0.64078-0.09302 1.0749-0.42374 0.41341-0.3204 0.59944-0.7028 0.19638-0.39275 0.19638-1.0439zm6.1908 10.676h-4.8473l-4.1961-5.6431h-1.8294v5.6431h-3.9481v-15.389h6.6559q1.3643 0 2.3461 0.15504 0.98185 0.15503 1.8397 0.67179 0.86817 0.51677 1.3746 1.3436 0.51676 0.81648 0.51676 2.0567 0 1.7053-0.79582 2.7802-0.78548 1.0749-2.2531 1.788z"/>
    <path id="path21406" d="m282.98 244.02h-11.131v-15.389h11.131v2.9766h-7.183v2.6562h6.6663v2.9766h-6.6663v3.8034h7.183z"/>
   </g> -->
  </g>
 </g>
</svg>
